<?xml version="1.0" encoding="utf-8"?>
<svg xmlns="http://www.w3.org/2000/svg" viewBox="0 0 100 100" width="200" height="200">
  <path d="M51.427734 17.599609C49.166203 17.524176 46.903047 17.726437 44.669922 18.210938C42.758922 18.627938 40.850047 19.254266 38.998047 20.072266C38.266047 20.396266 37.702063 20.985422 37.414062 21.732422C37.276063 22.089422 37.212844 22.463938 37.214844 22.835938C31.139844 26.126938 26.181125 31.704141 23.203125 38.619141C21.579125 38.651141 20.267578 39.965078 20.267578 41.580078L20.267578 42.267578C15.218578 43.720578 11.634766 48.369281 11.634766 53.613281C11.634766 58.857281 15.218578 63.508937 20.267578 64.960938L20.267578 65.648438C20.267578 67.284437 21.611672 68.613281 23.263672 68.613281L24.271484 68.613281C25.923484 68.613281 27.267578 67.283438 27.267578 65.648438L27.267578 41.580078C27.267578 40.311078 26.456266 39.2355 25.322266 38.8125C28.102266 32.6825 32.531781 27.730375 37.925781 24.734375C38.761781 25.728375 40.177781 26.107594 41.425781 25.558594C42.907781 24.902594 44.427312 24.403219 45.945312 24.074219C50.614312 23.057219 55.485203 23.627609 60.033203 25.724609C60.429203 25.907609 60.851109 26.001953 61.287109 26.001953C61.886109 26.001953 62.459406 25.817047 62.941406 25.498047C67.879406 28.612047 71.913797 33.397609 74.466797 39.224609C73.744797 39.766609 73.269531 40.615078 73.269531 41.580078L73.269531 65.648438C73.269531 66.703438 73.832875 67.624391 74.671875 68.150391C74.187875 69.632391 71.664219 76.019172 64.074219 77.826172C63.626219 76.542172 62.414469 75.613281 60.980469 75.613281L50.556641 75.613281C48.743641 75.613281 47.267578 77.088344 47.267578 78.902344L47.267578 79.326172C47.267578 81.139172 48.743641 82.615234 50.556641 82.615234L60.978516 82.615234C62.612516 82.615234 63.961844 81.415562 64.214844 79.851562C73.183844 77.868562 76.138188 70.088234 76.617188 68.615234L77.271484 68.615234C78.923484 68.615234 80.267578 67.283437 80.267578 65.648438L80.267578 64.960938C85.316578 63.507937 88.902344 58.857281 88.902344 53.613281C88.902344 48.369281 85.316578 43.720578 80.267578 42.267578L80.267578 41.580078C80.267578 39.944078 78.923484 38.613281 77.271484 38.613281L76.373047 38.613281C73.686047 32.389281 69.401719 27.259531 64.136719 23.894531C64.580719 22.477531 63.926969 20.915344 62.542969 20.277344C58.957344 18.623594 55.196953 17.725332 51.427734 17.599609 z M 51.400391 18.599609C55.036006 18.721836 58.66375 19.589297 62.125 21.185547C63.125 21.646547 63.563516 22.836891 63.103516 23.837891C62.656516 24.807891 61.428219 25.266406 60.449219 24.816406C57.234219 23.334406 53.862906 22.582031 50.503906 22.582031C48.903906 22.582031 47.307422 22.752703 45.732422 23.095703C44.149422 23.440703 42.563531 23.961531 41.019531 24.644531C40.011531 25.091531 38.829813 24.631047 38.382812 23.623047C38.166812 23.134047 38.154656 22.59175 38.347656 22.09375C38.540656 21.59575 38.913344 21.203281 39.402344 20.988281C41.192344 20.196281 43.037813 19.591453 44.882812 19.189453C47.035688 18.721453 49.219021 18.526273 51.400391 18.599609 z M 23.263672 40.613281L24.271484 40.613281C24.820484 40.613281 25.267578 41.048078 25.267578 41.580078L25.267578 65.648438C25.267578 66.181438 24.820484 66.613281 24.271484 66.613281L23.263672 66.613281C22.714672 66.613281 22.267578 66.180438 22.267578 65.648438L22.267578 64.181641C22.267578 63.710641 21.939516 63.303125 21.478516 63.203125C16.933516 62.225125 13.634766 58.191281 13.634766 53.613281C13.634766 49.106281 16.832578 45.135125 21.267578 44.078125L21.267578 54.113281C21.267578 54.389281 21.491578 54.613281 21.767578 54.613281C22.043578 54.613281 22.267578 54.389281 22.267578 54.113281L22.267578 43.113281C22.267578 43.102281 22.261719 43.093031 22.261719 43.082031C22.261719 43.070031 22.267578 43.059875 22.267578 43.046875L22.267578 41.580078C22.267578 41.047078 22.714672 40.613281 23.263672 40.613281 z M 76.263672 40.613281L77.271484 40.613281C77.820484 40.613281 78.267578 41.048078 78.267578 41.580078L78.267578 43.046875C78.267578 43.059875 78.273438 43.069031 78.273438 43.082031C78.272437 43.093031 78.267578 43.102281 78.267578 43.113281L78.267578 54.113281C78.267578 54.389281 78.491578 54.613281 78.767578 54.613281C79.043578 54.613281 79.267578 54.389281 79.267578 54.113281L79.267578 44.080078C83.702578 45.136078 86.902344 49.108234 86.902344 53.615234C86.902344 58.193234 83.603594 62.225125 79.058594 63.203125C78.597594 63.302125 78.267578 63.709641 78.267578 64.181641L78.267578 65.648438C78.267578 66.181438 77.820484 66.615234 77.271484 66.615234L76.263672 66.615234C75.714672 66.615234 75.267578 66.180437 75.267578 65.648438L75.267578 41.580078C75.267578 41.047078 75.714672 40.613281 76.263672 40.613281 z M 57.962891 44.654297C57.736891 44.654297 57.577375 44.754125 57.484375 44.953125L50.037109 59.691406C49.997109 59.744406 49.976562 59.830219 49.976562 59.949219C49.976562 60.108219 50.03725 60.246234 50.15625 60.365234C50.27525 60.484234 50.427281 60.544922 50.613281 60.544922C50.891281 60.544922 51.076922 60.438563 51.169922 60.226562L58.578125 45.587891C58.631125 45.495891 58.65625 45.403547 58.65625 45.310547C58.65625 45.125547 58.585453 44.96975 58.439453 44.84375C58.293453 44.71875 58.134891 44.654297 57.962891 44.654297 z M 36.224609 45.429688C35.135609 45.429688 34.216797 45.748766 33.466797 46.384766C32.716797 47.019766 32.341797 47.833172 32.341797 48.826172C32.341797 49.475172 32.592703 49.800781 33.095703 49.800781C33.360703 49.800781 33.572469 49.733609 33.730469 49.599609C33.888469 49.465609 33.96875 49.311719 33.96875 49.136719C33.96875 48.424719 34.178656 47.881859 34.597656 47.505859C35.016656 47.129859 35.556656 46.941406 36.222656 46.941406C37.006656 46.941406 37.608344 47.180203 38.027344 47.658203C38.446344 48.136203 38.65625 48.694031 38.65625 49.332031C38.65625 49.930031 38.42675 50.517703 37.96875 51.095703C37.50975 51.672703 36.953734 52.195156 36.302734 52.660156L34.367188 54.095703C33.734188 54.559703 33.194047 55.080203 32.748047 55.658203C32.302047 56.235203 32.080078 56.822922 32.080078 57.419922L32.080078 59.351562C32.080078 59.523562 32.163125 59.66625 32.328125 59.78125C32.493125 59.89425 32.661031 59.951172 32.832031 59.951172L39.869141 59.951172C40.027141 59.951172 40.163391 59.874656 40.275391 59.722656C40.387391 59.571656 40.443359 59.394312 40.443359 59.195312C40.443359 58.984312 40.386437 58.806156 40.273438 58.660156C40.160437 58.514156 40.025234 58.441406 39.865234 58.441406L33.75 58.441406L33.75 57.425781C33.75 57.039781 33.913281 56.646047 34.238281 56.248047C34.564281 55.849047 34.966313 55.485344 35.445312 55.152344L37.041016 54.015625C37.612016 53.590625 38.139047 53.165234 38.623047 52.740234C39.107047 52.315234 39.512891 51.796547 39.837891 51.185547C40.162891 50.574547 40.326172 49.935484 40.326172 49.271484C40.326172 48.168484 39.933391 47.252437 39.150391 46.523438C38.367391 45.795438 37.392609 45.429688 36.224609 45.429688 z M 46.322266 45.429688C45.991266 45.429688 45.740359 45.58825 45.568359 45.90625L40.662109 55.601562C40.595109 55.707563 40.5625 55.834469 40.5625 55.980469C40.5625 56.184469 40.618469 56.34775 40.730469 56.46875C40.843469 56.59075 40.991734 56.650391 41.177734 56.650391L46.142578 56.650391L46.142578 59.359375C46.142578 59.542375 46.226578 59.687016 46.392578 59.791016C46.557578 59.896016 46.752516 59.947266 46.978516 59.947266C47.203516 59.947266 47.398453 59.896016 47.564453 59.791016C47.729453 59.686016 47.8125 59.542375 47.8125 59.359375L47.8125 56.650391L48.865234 56.650391C49.024234 56.650391 49.16225 56.566484 49.28125 56.396484C49.40025 56.226484 49.460938 56.041891 49.460938 55.837891C49.460938 55.620891 49.408734 55.430578 49.302734 55.267578C49.196734 55.105578 49.050234 55.023438 48.865234 55.023438L47.8125 55.023438L47.8125 51.720703C47.8125 51.536703 47.729453 51.395875 47.564453 51.296875C47.398453 51.199875 47.203516 51.150391 46.978516 51.150391C46.752516 51.150391 46.557578 51.198875 46.392578 51.296875C46.226578 51.395875 46.142578 51.536703 46.142578 51.720703L46.142578 55.021484L42.707031 55.021484L47.056641 46.361328C47.109641 46.269328 47.136719 46.176984 47.136719 46.083984C47.136719 45.898984 47.047141 45.743187 46.869141 45.617188C46.691141 45.491188 46.508266 45.429688 46.322266 45.429688 z M 60.265625 45.429688C60.079625 45.429687 59.907047 45.491188 59.748047 45.617188C59.590047 45.743187 59.509766 45.879391 59.509766 46.025391L59.509766 49.025391C59.509766 49.197391 59.591812 49.338172 59.757812 49.451172C59.923813 49.564172 60.11775 49.621094 60.34375 49.621094C60.56875 49.621094 60.763688 49.564172 60.929688 49.451172C61.094687 49.338172 61.177734 49.197391 61.177734 49.025391L61.177734 46.939453L66.402344 46.939453L66.402344 48.072266L60.681641 58.857422C60.628641 58.963422 60.601562 59.076313 60.601562 59.195312C60.601563 59.420313 60.704156 59.609719 60.910156 59.761719C61.115156 59.913719 61.350234 59.988281 61.615234 59.988281C61.880234 59.988281 62.059344 59.896937 62.152344 59.710938L67.792969 48.726562C67.977969 48.382563 68.070312 48.098047 68.070312 47.873047L68.070312 46.025391C68.070312 45.879391 67.987266 45.743187 67.822266 45.617188C67.657266 45.491187 67.488406 45.429688 67.316406 45.429688L60.265625 45.429688 z M 21.767578 56.613281C21.491578 56.613281 21.267578 56.837281 21.267578 57.113281L21.267578 58.113281C21.267578 58.389281 21.491578 58.613281 21.767578 58.613281C22.043578 58.613281 22.267578 58.389281 22.267578 58.113281L22.267578 57.113281C22.267578 56.837281 22.043578 56.613281 21.767578 56.613281 z M 78.767578 56.613281C78.491578 56.613281 78.267578 56.837281 78.267578 57.113281L78.267578 58.113281C78.267578 58.389281 78.491578 58.613281 78.767578 58.613281C79.043578 58.613281 79.267578 58.389281 79.267578 58.113281L79.267578 57.113281C79.267578 56.837281 79.043578 56.613281 78.767578 56.613281 z M 21.498047 59.425781C21.366797 59.427031 21.237937 59.474453 21.148438 59.564453C21.058438 59.654453 20.998047 59.784062 20.998047 59.914062C20.998047 60.044063 21.059437 60.173438 21.148438 60.273438C21.238437 60.363438 21.368047 60.414062 21.498047 60.414062C21.628047 60.414062 21.758422 60.363438 21.857422 60.273438C21.947422 60.173437 21.998047 60.044063 21.998047 59.914062C21.998047 59.784062 21.947422 59.654453 21.857422 59.564453C21.761922 59.469453 21.629297 59.424531 21.498047 59.425781 z M 78.398438 59.425781C78.302187 59.445781 78.213438 59.494453 78.148438 59.564453C78.098438 59.614453 78.067109 59.664609 78.037109 59.724609C78.008109 59.784609 77.998047 59.854062 77.998047 59.914062C77.998047 59.984063 78.008109 60.043281 78.037109 60.113281C78.067109 60.173281 78.099437 60.223438 78.148438 60.273438C78.238438 60.363438 78.368047 60.414062 78.498047 60.414062C78.568047 60.414062 78.6275 60.403047 78.6875 60.373047C78.7475 60.353047 78.807656 60.313437 78.847656 60.273438C78.897656 60.223438 78.938031 60.173281 78.957031 60.113281C78.987031 60.043281 78.996094 59.984062 78.996094 59.914062C78.996094 59.854062 78.987031 59.784609 78.957031 59.724609C78.938031 59.664609 78.897656 59.614453 78.847656 59.564453C78.807656 59.514453 78.7465 59.483125 78.6875 59.453125C78.5975 59.413125 78.494688 59.405781 78.398438 59.425781 z M 50.556641 76.613281L60.978516 76.613281C62.240516 76.613281 63.267578 77.640344 63.267578 78.902344L63.267578 79.326172C63.267578 80.588172 62.240516 81.615234 60.978516 81.615234L50.556641 81.615234C49.294641 81.615234 48.267578 80.588172 48.267578 79.326172L48.267578 78.902344C48.267578 77.640344 49.294641 76.613281 50.556641 76.613281 z" />
</svg>