<?xml version="1.0" encoding="utf-8"?>
<svg xmlns="http://www.w3.org/2000/svg" viewBox="0 0 24 24" width="48" height="48">
  <path d="M8 1C6.34375 1 5 2.34375 5 4C5 5.65625 6.34375 7 8 7C9.65625 7 11 5.65625 11 4C11 2.34375 9.65625 1 8 1 Z M 16 1C14.34375 1 13 2.34375 13 4C13 5.65625 14.34375 7 16 7C17.65625 7 19 5.65625 19 4C19 2.34375 17.65625 1 16 1 Z M 4 7C2.34375 7 1 8.34375 1 10C1 11.65625 2.34375 13 4 13C5.65625 13 7 11.65625 7 10C7 8.34375 5.65625 7 4 7 Z M 20 7C18.34375 7 17 8.34375 17 10C17 11.65625 18.34375 13 20 13C21.65625 13 23 11.65625 23 10C23 8.34375 21.65625 7 20 7 Z M 12 12C10.34375 12 9 13.34375 9 15C9 16.65625 10.34375 18 12 18C13.65625 18 15 16.65625 15 15C15 13.34375 13.65625 12 12 12 Z M 2.09375 13.5C0.894531 14.199219 0 15.5 0 17L0 18.1875C0 18.1875 1 19 4 19C7 19 8 18.1875 8 18.1875L8 17C8 15.5 7.105469 14.199219 5.90625 13.5C5.304688 13.800781 4.699219 14 4 14C3.300781 14 2.695313 13.800781 2.09375 13.5 Z M 18.09375 13.5C16.894531 14.199219 16 15.5 16 17L16 18.1875C16 18.1875 17 19 20 19C23 19 24 18.1875 24 18.1875L24 17C24 15.5 23.105469 14.199219 21.90625 13.5C21.304688 13.800781 20.699219 14 20 14C19.300781 14 18.695313 13.800781 18.09375 13.5 Z M 10.09375 18.5C8.894531 19.199219 8 20.5 8 22L8 23.1875C8 23.1875 9 24 12 24C15 24 16 23.1875 16 23.1875L16 22C16 20.5 15.105469 19.199219 13.90625 18.5C13.304688 18.800781 12.699219 19 12 19C11.300781 19 10.695313 18.800781 10.09375 18.5Z" />
</svg>