<?xml version="1.0" encoding="utf-8"?>
<svg xmlns="http://www.w3.org/2000/svg" viewBox="0 0 50 50" width="100" height="100">
  <path d="M25 7C15.941406 7 7.339844 10.472656 0.78125 16.773438L0.0625 17.464844L5.59375 23.230469L6.320313 22.539063C11.378906 17.679688 18.015625 15 25 15C31.984375 15 38.621094 17.679688 43.683594 22.539063L44.40625 23.230469L49.941406 17.464844L49.21875 16.769531C42.660156 10.46875 34.058594 7 25 7 Z M 25 19C19.046875 19 13.394531 21.28125 9.085938 25.421875L8.363281 26.113281L13.921875 31.90625L14.644531 31.210938C17.464844 28.496094 21.144531 27 25 27C28.855469 27 32.535156 28.496094 35.355469 31.210938L36.078125 31.90625L41.636719 26.113281L40.917969 25.421875C36.605469 21.28125 30.953125 19 25 19 Z M 25 31C22.15625 31 19.453125 32.089844 17.390625 34.074219L16.671875 34.765625L25 43.441406L33.328125 34.765625L32.609375 34.074219C30.546875 32.089844 27.84375 31 25 31Z" />
</svg>