<?xml version="1.0" encoding="utf-8"?>
<svg xmlns="http://www.w3.org/2000/svg" viewBox="0 0 24 24" width="48" height="48">
  <path d="M12 1.0058594C9.4387181 1.0058594 6.8782304 1.9811446 4.9296875 3.9296875L6.34375 5.34375C9.4766642 2.2108358 14.523336 2.2108358 17.65625 5.34375L19.070312 3.9296875C17.121771 1.9811446 14.561282 1.0058594 12 1.0058594 z M 12 5.0566406C10.475233 5.0566406 8.9505423 5.6353951 7.7929688 6.7929688L9.2070312 8.2070312C10.757884 6.6561787 13.242116 6.6561786 14.792969 8.2070312L16.207031 6.7929688C15.049458 5.6353951 13.524767 5.0566406 12 5.0566406 z M 5 6.828125L5 20.5C5 21.88 6.12 23 7.5 23L16.5 23C17.88 23 19 21.88 19 20.5L19 6.828125L17.621094 8.2070312L17 8.828125L17 18L7 18L7 8.828125L6.3789062 8.2070312L6.34375 8.171875L5 6.828125 z M 12 9.0058594C11.485802 9.0058162 10.972229 9.1996453 10.585938 9.5859375L12 11L13.414062 9.5859375C13.028028 9.1989119 12.514198 9.0059025 12 9.0058594 z M 12 18.875C12.622 18.875 13.125 19.378 13.125 20C13.125 20.622 12.622 21.125 12 21.125C11.378 21.125 10.875 20.622 10.875 20C10.875 19.378 11.378 18.875 12 18.875 z" />
</svg>