<?xml version="1.0" encoding="utf-8"?>
<svg xmlns="http://www.w3.org/2000/svg" viewBox="0 0 30 30" width="60" height="60">
  <path d="M21 4C20.448 4 20 4.448 20 5L20 25C20 25.552 20.448 26 21 26L25 26C25.552 26 26 25.552 26 25L26 5C26 4.448 25.552 4 25 4L21 4 z M 13 10C12.448 10 12 10.448 12 11L12 25C12 25.552 12.448 26 13 26L17 26C17.552 26 18 25.552 18 25L18 11C18 10.448 17.552 10 17 10L13 10 z M 5 16C4.448 16 4 16.448 4 17L4 25C4 25.552 4.448 26 5 26L9 26C9.552 26 10 25.552 10 25L10 17C10 16.448 9.552 16 9 16L5 16 z" />
</svg>