<?xml version="1.0" encoding="utf-8"?>
<svg xmlns="http://www.w3.org/2000/svg" viewBox="0 0 64 64" width="128" height="128">
  <path d="M45 11C44.448 11 44 11.448 44 12L8 12C6.343 12 5 13.343 5 15L5 49C5 50.657 6.343 52 8 52L56 52C57.657 52 59 50.657 59 49L59 15C59 13.343 57.657 12 56 12L50 12C50 11.448 49.552 11 49 11L45 11 z M 16.263672 15.001953C16.365297 15.014969 16.466797 15.048766 16.560547 15.103516C16.937547 15.323516 17.06375 15.806594 16.84375 16.183594L15.142578 19.097656C17.601578 20.916656 19.388 23.729 20 27L10 27L10 17C11.356 17.176 12.635594 17.612953 13.808594 18.251953L15.480469 15.386719C15.644719 15.104719 15.958797 14.962906 16.263672 15.001953 z M 13.5 22C12.67 22 12 22.67 12 23.5C12 24.33 12.67 25 13.5 25C14.33 25 15 24.33 15 23.5C15 22.67 14.33 22 13.5 22 z M 10 29L20 29L20 39.421875C20 40.293875 19.293875 41 18.421875 41L15 41L15 47.5C15 48.328 14.328 49 13.5 49C12.672 49 12 48.328 12 47.5L12 41L10 41L10 29 z M 23.5 29C24.328 29 25 29.672 25 30.5L25 36.5C25 37.328 24.328 38 23.5 38C22.672 38 22 37.328 22 36.5L22 30.5C22 29.672 22.672 29 23.5 29 z" />
</svg>