<?xml version="1.0" encoding="utf-8"?>
<svg xmlns="http://www.w3.org/2000/svg" viewBox="0 0 48 48" width="48" height="48">
  <path d="M10.5 6C7.468 6 5 8.468 5 11.5L5 15.5L5 36C5 39.290032 7.7099679 42 11 42L37 42C40.290032 42 43 39.290032 43 36L43 15.5L43 11.5C43 8.468 40.532 6 37.5 6L10.5 6 z M 10.5 10C11.328 10 12 10.672 12 11.5C12 12.328 11.328 13 10.5 13C9.672 13 9 12.328 9 11.5C9 10.672 9.672 10 10.5 10 z M 15.5 10C16.328 10 17 10.672 17 11.5C17 12.328 16.328 13 15.5 13C14.672 13 14 12.328 14 11.5C14 10.672 14.672 10 15.5 10 z M 21.5 10L37.5 10C38.328 10 39 10.672 39 11.5C39 12.328 38.328 13.029297 37.5 13.029297L21.5 13.029297C20.672 13.029297 20 12.329 20 11.5C20 10.671 20.672 10 21.5 10 z M 9 17L39 17L39 36C39 37.127968 38.127968 38 37 38L11 38C9.8720321 38 9 37.127968 9 36L9 17 z M 21.476562 18.978516 A 1.50015 1.50015 0 0 0 20 20.5L20 34.5 A 1.50015 1.50015 0 1 0 23 34.5L23 20.5 A 1.50015 1.50015 0 0 0 21.476562 18.978516 z M 26.476562 22.978516 A 1.50015 1.50015 0 0 0 25 24.5L25 34.5 A 1.50015 1.50015 0 1 0 28 34.5L28 24.5 A 1.50015 1.50015 0 0 0 26.476562 22.978516 z M 31.476562 26.978516 A 1.50015 1.50015 0 0 0 30 28.5L30 34.5 A 1.50015 1.50015 0 1 0 33 34.5L33 28.5 A 1.50015 1.50015 0 0 0 31.476562 26.978516 z M 16.476562 27.978516 A 1.50015 1.50015 0 0 0 15 29.5L15 34.5 A 1.50015 1.50015 0 1 0 18 34.5L18 29.5 A 1.50015 1.50015 0 0 0 16.476562 27.978516 z" />
</svg>