<?xml version="1.0" encoding="utf-8"?>
<svg xmlns="http://www.w3.org/2000/svg" viewBox="0 0 32 32" width="64" height="64">
  <path d="M16 6C13.175781 6 10.679688 7.183594 8.875 9L7 9C4.253906 9 2 11.253906 2 14L2 18C2 20.746094 4.253906 23 7 23L8.875 23C10.679688 24.816406 13.175781 26 16 26C18.824219 26 21.320313 24.816406 23.125 23L25 23C27.746094 23 30 20.746094 30 18L30 14C30 11.253906 27.746094 9 25 9L23.125 9C21.320313 7.183594 18.824219 6 16 6 Z M 20 11L25 11C26.65625 11 28 12.34375 28 14L28 18C28 19.65625 26.65625 21 25 21L14 21C15.699219 21 17 19.699219 17 18L17 14C17 12.300781 18.300781 11 20 11 Z M 13.40625 12.59375C13.90625 12.59375 14.3125 13.007813 14.3125 13.40625C14.3125 13.804688 13.90625 14.1875 13.40625 14.1875C12.90625 14.1875 12.5 13.804688 12.5 13.40625C12.5 13.007813 12.90625 12.59375 13.40625 12.59375 Z M 25.59375 12.59375C25.097656 12.59375 24.6875 12.964844 24.6875 13.40625C24.6875 13.847656 25.097656 14.1875 25.59375 14.1875C26.089844 14.1875 26.5 13.847656 26.5 13.40625C26.5 12.964844 26.089844 12.59375 25.59375 12.59375 Z M 5 12.90625L6.59375 12.90625L7.09375 16.5L7.6875 12.90625L9.1875 12.90625L9.8125 16.5L10.3125 12.90625L11.90625 12.90625L10.59375 19.09375L9.09375 19.09375L8.5 15.3125L7.90625 19.09375L6.40625 19.09375 Z M 19 12.90625L19 19.09375L20.59375 19.09375L20.59375 17.1875L23.59375 17.1875L23.59375 15.8125L20.59375 15.8125L20.59375 14.40625L23.90625 14.40625L23.90625 12.90625 Z M 12.59375 14.59375L14.09375 14.59375L14.09375 19.09375L12.59375 19.09375 Z M 24.8125 14.59375L24.8125 19.09375L26.3125 19.09375L26.3125 14.59375Z" />
</svg>